<svg width="52" height="51" viewBox="0 0 52 51" fill="none" xmlns="http://www.w3.org/2000/svg">
<path d="M38.7821 23.6694C39.3471 27.6242 38.0759 31.7908 35.0392 34.8982C29.8838 40.1242 21.4092 40.1242 16.1832 34.9688C10.9573 29.8134 10.9573 21.3389 16.1126 16.1129C17.3132 14.9123 18.655 13.9942 20.0674 13.3586" stroke="#17263F" stroke-width="1.5" stroke-miterlimit="10" stroke-linecap="round" stroke-linejoin="round"/>
<path d="M29.3175 47.822V38.853C27.2695 39.3474 25.0802 39.3474 23.0322 38.9236V47.8926C23.0322 49.6581 24.4447 50.9999 26.2102 50.9999C27.9051 50.9999 29.3175 49.5875 29.3175 47.822Z" fill="#17263F"/>
<path d="M50.5759 21.4802H28.4714L22.9629 26.565V21.4802V1H50.5759V21.4802Z" stroke="#0ED39C" stroke-width="1.5" stroke-miterlimit="10" stroke-linecap="round" stroke-linejoin="round"/>
<path d="M42.0312 11.2401L33.5566 6.29663V16.113L42.0312 11.2401Z" stroke="#0ED39C" stroke-width="1.5" stroke-miterlimit="10" stroke-linecap="round" stroke-linejoin="round"/>
<path d="M20.0678 48.6695H1V16.113H12.2288" stroke="#17263F" stroke-width="1.5" stroke-miterlimit="10" stroke-linecap="round" stroke-linejoin="round"/>
<path d="M4.74316 37.582H12.229" stroke="#17263F" stroke-width="1.5" stroke-miterlimit="10" stroke-linecap="round" stroke-linejoin="round"/>
<path d="M4.74316 42.3135H14.842" stroke="#17263F" stroke-width="1.5" stroke-miterlimit="10" stroke-linecap="round" stroke-linejoin="round"/>
<path d="M12.229 31.1554H4.74316V21.9746H10.5341" stroke="#17263F" stroke-width="1.5" stroke-miterlimit="10" stroke-linecap="round" stroke-linejoin="round"/>
</svg>
