<svg width="46" height="51" viewBox="0 0 46 51" fill="none" xmlns="http://www.w3.org/2000/svg">
                    <path d="M27.5421 33.5121V33.244C27.5421 30.697 28.6815 28.2842 30.4241 26.4075C32.0327 24.6649 33.0381 22.319 33.0381 19.7051C33.0381 13.8739 27.9442 9.18224 21.9791 9.85248C17.5555 10.3887 13.9361 13.941 13.3329 18.2975C12.9308 21.3807 13.9361 24.2627 15.8128 26.2734C17.6225 28.2842 18.7619 30.8311 18.7619 33.5121C18.7619 34.1823 19.2981 34.7185 19.9683 34.7185H19.7002C19.097 34.7185 18.6278 35.1877 18.6278 35.7909V36.8633C18.6278 37.4665 19.097 37.9357 19.7002 37.9357H20.2364V38.0027V39.0751C20.2364 39.6783 20.7056 40.1475 21.3088 40.1475H24.9952C25.5984 40.1475 26.0675 39.6783 26.0675 39.0751V38.0027V37.9357H26.6037C27.207 37.9357 27.6761 37.4665 27.6761 36.8633V35.7909C27.6761 35.1877 27.207 34.7185 26.6037 34.7185H26.4027C27.0059 34.7185 27.5421 34.1823 27.5421 33.5121Z" stroke="#17263F" stroke-width="1.5" stroke-miterlimit="10" stroke-linecap="round" stroke-linejoin="round"/>
                    <path d="M19.9697 34.7185H24.1923" stroke="#17263F" stroke-width="1.5" stroke-miterlimit="10" stroke-linecap="round" stroke-linejoin="round"/>
                    <path d="M27.0723 44.3702L41.8846 35.8581V18.2307" stroke="#0ED39C" stroke-width="1.5" stroke-miterlimit="10" stroke-linecap="round" stroke-linejoin="round"/>
                    <path d="M4.28418 17.8286V35.8582L19.8338 44.8394" stroke="#0ED39C" stroke-width="1.5" stroke-miterlimit="10" stroke-linecap="round" stroke-linejoin="round"/>
                    <path d="M37.5956 11.6622L23.0513 3.28418L7.63574 12.1314" stroke="#0ED39C" stroke-width="1.5" stroke-miterlimit="10" stroke-linecap="round" stroke-linejoin="round"/>
                    <path d="M4.41798 38.8743C6.23179 38.8743 7.70217 37.4039 7.70217 35.5901C7.70217 33.7763 6.23179 32.3059 4.41798 32.3059C2.60417 32.3059 1.13379 33.7763 1.13379 35.5901C1.13379 37.4039 2.60417 38.8743 4.41798 38.8743Z" fill="#17263F"/>
                    <path d="M23.0508 6.56838C24.8646 6.56838 26.335 5.098 26.335 3.28419C26.335 1.47038 24.8646 0 23.0508 0C21.237 0 19.7666 1.47038 19.7666 3.28419C19.7666 5.098 21.237 6.56838 23.0508 6.56838Z" fill="#17263F"/>
                    <path d="M41.8848 39.5445C43.6986 39.5445 45.169 38.0741 45.169 36.2603C45.169 34.4465 43.6986 32.9761 41.8848 32.9761C40.071 32.9761 38.6006 34.4465 38.6006 36.2603C38.6006 38.0741 40.071 39.5445 41.8848 39.5445Z" fill="#17263F"/>
                    <path d="M41.8848 17.2923C43.6986 17.2923 45.169 15.8219 45.169 14.0081C45.169 12.1943 43.6986 10.7239 41.8848 10.7239C40.071 10.7239 38.6006 12.1943 38.6006 14.0081C38.6006 15.8219 40.071 17.2923 41.8848 17.2923Z" stroke="#0ED39C" stroke-width="1.5" stroke-miterlimit="10" stroke-linecap="round" stroke-linejoin="round"/>
                    <path d="M4.28419 17.2923C6.098 17.2923 7.56838 15.8219 7.56838 14.0081C7.56838 12.1943 6.098 10.7239 4.28419 10.7239C2.47038 10.7239 1 12.1943 1 14.0081C1 15.8219 2.47038 17.2923 4.28419 17.2923Z" stroke="#0ED39C" stroke-width="1.5" stroke-miterlimit="10" stroke-linecap="round" stroke-linejoin="round"/>
                    <path d="M23.0508 50C24.8646 50 26.335 48.5296 26.335 46.7158C26.335 44.902 24.8646 43.4316 23.0508 43.4316C21.237 43.4316 19.7666 44.902 19.7666 46.7158C19.7666 48.5296 21.237 50 23.0508 50Z" stroke="#0ED39C" stroke-width="1.5" stroke-miterlimit="10" stroke-linecap="round" stroke-linejoin="round"/>
                    </svg>