<svg width="25" height="23" viewBox="0 0 25 23" fill="none" xmlns="http://www.w3.org/2000/svg">
<path fill-rule="evenodd" clip-rule="evenodd" d="M12.5056 0C5.61717 0 0 4.93747 0 11.0014C0 17.0653 5.61717 22.0088 12.5056 22.0088C19.394 22.0088 25 17.0653 25 11.0014C25 4.93747 19.394 0 12.5056 0ZM17.596 6.99921C17.901 6.99352 18.196 7.09616 18.4144 7.28385C18.6327 7.47171 18.7559 7.72908 18.7563 7.99762C18.7569 8.26635 18.6346 8.52403 18.4168 8.71241L11.5985 14.7155C11.3855 14.9017 11.0976 15.0063 10.7975 15.0063C10.4973 15.0063 10.2094 14.9017 9.99638 14.7155L6.58382 11.7169C6.29606 11.4635 6.18366 11.0943 6.28902 10.7482C6.39439 10.4021 6.70136 10.1319 7.09447 10.0391C7.48759 9.94637 7.90699 10.0453 8.19473 10.2987L10.7931 12.5959L16.8061 7.30223C17.0142 7.11386 17.2979 7.00503 17.5962 6.99934L17.596 6.99921Z" fill="#17263F"/>
</svg>
